<?xml version="1.0" encoding="UTF-8" ?>
<!DOCTYPE svg PUBLIC "-//W3C//DTD SVG 1.1//EN" "http://www.w3.org/Graphics/SVG/1.1/DTD/svg11.dtd">
<svg width="200pt" height="200pt" viewBox="0 0 200 200" version="1.1" xmlns="http://www.w3.org/2000/svg">
<g id="#fafafaff">
</g>
<g id="#fa275aff">
<path fill="#fa275a" opacity="1.00" d=" M 121.67 77.85 C 120.19 72.24 123.73 65.48 129.91 65.22 C 136.55 64.38 141.54 71.72 139.75 77.83 C 148.64 78.81 157.22 81.51 165.55 84.64 C 169.71 86.60 170.97 91.51 170.35 95.74 C 176.63 96.16 183.87 94.33 189.01 99.03 C 196.12 104.35 195.24 114.14 195.22 122.00 C 194.97 130.14 196.72 139.83 190.45 146.29 C 184.87 152.23 176.11 150.76 168.79 151.30 C 167.95 156.32 166.02 161.01 163.89 165.61 C 172.58 165.90 181.32 165.25 189.98 165.93 C 199.74 167.17 201.17 182.89 192.52 186.65 C 187.53 188.65 181.98 186.75 176.86 187.85 C 176.31 189.72 176.64 191.76 176.09 193.64 C 174.57 197.08 171.21 199.65 167.44 200.00 L 33.84 200.00 C 27.34 200.09 22.68 193.71 23.41 187.53 C 17.69 187.05 11.24 188.99 6.12 185.66 C 2.09 182.91 1.83 177.52 2.61 173.15 C 3.57 168.92 7.64 165.70 11.98 165.72 C 19.26 165.50 26.54 165.80 33.82 165.58 C 31.09 154.94 29.52 143.93 29.74 132.94 C 29.66 130.64 31.85 129.01 34.04 129.39 C 49.97 129.44 65.90 129.29 81.83 129.46 C 84.32 129.20 85.23 131.82 85.20 133.85 C 85.09 144.55 83.78 155.23 81.13 165.60 C 87.71 165.69 94.29 165.69 100.86 165.60 C 93.83 150.18 94.17 132.83 93.72 116.25 C 92.21 110.19 88.13 105.23 85.00 99.94 C 84.32 98.83 85.29 97.58 85.44 96.45 C 87.15 95.94 88.93 95.77 90.71 95.64 C 90.64 92.63 90.78 89.32 92.96 86.98 C 95.28 83.76 99.50 83.46 102.94 82.17 C 108.99 80.00 115.29 78.58 121.67 77.85 M 128.43 72.32 C 128.15 73.69 128.10 75.08 128.49 76.42 C 129.28 76.73 130.06 77.03 130.85 77.34 C 132.41 76.76 134.20 75.45 133.34 73.53 C 132.55 71.46 130.11 71.71 128.43 72.32 M 97.90 90.76 C 96.50 93.10 98.38 95.87 100.97 95.76 C 120.67 95.84 140.39 95.80 160.10 95.78 C 162.70 96.08 164.50 93.56 163.77 91.15 C 152.86 86.41 140.97 83.61 129.01 84.15 C 118.25 83.89 107.88 87.10 97.90 90.76 M 94.51 102.28 C 96.71 106.72 99.52 111.02 100.36 115.98 C 100.55 121.66 100.32 127.35 100.66 133.03 C 101.82 142.33 101.77 152.08 105.95 160.70 C 107.11 163.09 109.21 165.60 112.10 165.64 C 124.73 165.71 137.37 165.61 150.01 165.68 C 151.89 165.59 154.05 165.92 155.57 164.53 C 159.63 161.24 161.18 155.90 162.15 150.97 C 162.60 148.78 162.29 145.85 164.72 144.73 C 170.16 144.08 175.68 144.93 181.12 144.27 C 185.22 143.55 188.36 139.75 188.42 135.61 C 188.62 127.54 188.52 119.47 188.48 111.41 C 188.57 106.84 184.82 102.13 180.05 102.33 C 151.54 102.31 123.02 102.41 94.51 102.28 M 36.33 136.17 C 36.64 145.99 37.29 156.17 41.08 165.35 C 43.00 165.91 45.03 165.60 47.00 165.67 C 55.98 165.51 64.98 165.92 73.96 165.46 C 77.61 156.13 77.80 146.05 78.66 136.21 C 64.55 136.01 50.44 136.09 36.33 136.17 M 10.05 180.61 C 13.32 181.45 16.70 181.24 20.04 181.23 C 73.69 181.23 127.34 181.22 180.99 181.23 C 183.63 181.16 186.33 181.50 188.93 180.93 C 193.09 180.20 192.58 172.00 188.13 172.40 C 129.38 172.40 70.63 172.41 11.89 172.40 C 7.89 172.58 7.74 178.26 10.05 180.61 M 30.07 188.14 C 29.80 190.63 31.05 193.58 33.94 193.42 C 77.97 193.51 122.00 193.46 166.03 193.45 C 168.76 193.67 170.86 191.05 170.18 188.40 C 167.56 186.36 163.98 188.01 160.97 188.07 C 117.34 188.12 73.70 187.97 30.07 188.14 Z" />
<path fill="#fa275a" opacity="1.00" d=" M 32.41 92.65 C 42.46 91.98 53.97 96.26 57.98 106.20 C 62.29 100.47 69.72 98.47 76.59 98.52 C 77.58 99.45 78.89 100.28 79.07 101.77 C 78.92 107.39 77.93 113.58 73.68 117.67 C 68.92 122.64 61.59 123.89 54.99 123.47 C 48.13 123.04 40.87 120.96 36.19 115.62 C 31.52 110.65 30.05 103.60 29.67 97.00 C 29.34 95.11 30.50 93.08 32.41 92.65 M 36.25 99.37 C 37.03 103.97 38.17 108.94 41.85 112.15 C 45.03 115.30 49.56 116.35 53.86 116.89 C 53.90 112.41 52.37 107.92 49.40 104.55 C 46.02 101.04 41.06 99.37 36.25 99.37 M 61.38 116.90 C 67.31 116.14 71.91 111.32 72.45 105.37 C 66.50 105.50 60.55 110.66 61.38 116.90 Z" />
<path fill="#fa275a" opacity="1.00" d=" M 163.82 112.00 C 163.65 109.73 165.64 107.55 167.98 107.77 C 171.69 107.75 175.40 107.74 179.11 107.78 C 180.77 107.72 182.81 109.06 182.70 110.89 C 182.73 118.97 182.72 127.06 182.71 135.14 C 183.03 137.19 181.06 138.92 179.09 138.73 C 174.58 138.73 170.08 138.79 165.57 138.62 C 164.92 137.93 164.26 137.24 163.61 136.55 C 163.77 128.37 163.83 120.18 163.82 112.00 M 170.45 114.51 C 170.62 120.44 170.26 126.37 170.29 132.30 C 172.26 132.30 174.22 132.30 176.19 132.31 C 176.36 126.35 176.24 120.39 176.25 114.44 C 174.32 114.44 172.38 114.46 170.45 114.51 Z" />
</g>
</svg>
